<svg width="117" height="117" viewBox="0 0 117 117" fill="none" xmlns="http://www.w3.org/2000/svg">
<path d="M41.1136 62.2386C40.2159 62.233 39.3494 62.0824 38.5142 61.7869C37.6847 61.4915 36.9403 61.0114 36.2812 60.3466C35.6222 59.6818 35.0994 58.8011 34.7131 57.7045C34.3324 56.608 34.142 55.2614 34.142 53.6648C34.1477 52.1989 34.3153 50.8892 34.6449 49.7358C34.9801 48.5767 35.4574 47.5937 36.0767 46.7869C36.7017 45.9801 37.4489 45.3665 38.3182 44.946C39.1875 44.5199 40.1619 44.3068 41.2415 44.3068C42.4063 44.3068 43.4347 44.5341 44.3267 44.9886C45.2188 45.4375 45.9347 46.0483 46.4744 46.821C47.0199 47.5938 47.3494 48.4602 47.4631 49.4205H43.8239C43.6818 48.8125 43.3835 48.3352 42.929 47.9886C42.4744 47.642 41.9119 47.4688 41.2415 47.4688C40.1051 47.4688 39.2415 47.9631 38.6506 48.9517C38.0653 49.9403 37.767 51.2841 37.7557 52.983H37.875C38.1364 52.4659 38.4886 52.0256 38.9318 51.6619C39.3807 51.2926 39.8892 51.0114 40.4574 50.8182C41.0312 50.6193 41.6364 50.5199 42.2727 50.5199C43.3068 50.5199 44.2273 50.7642 45.0341 51.2528C45.8409 51.7358 46.4773 52.4006 46.9432 53.2472C47.4091 54.0937 47.642 55.0625 47.642 56.1534C47.642 57.3352 47.3665 58.3864 46.8153 59.3068C46.2699 60.2273 45.5057 60.9489 44.5227 61.4716C43.5455 61.9886 42.4091 62.2443 41.1136 62.2386ZM41.0966 59.3409C41.6648 59.3409 42.1733 59.2045 42.6222 58.9318C43.071 58.6591 43.4233 58.2898 43.679 57.8239C43.9347 57.358 44.0625 56.8352 44.0625 56.2557C44.0625 55.6761 43.9347 55.1562 43.679 54.696C43.429 54.2358 43.0824 53.8693 42.6392 53.5966C42.196 53.3239 41.6903 53.1875 41.1222 53.1875C40.696 53.1875 40.3011 53.267 39.9375 53.4261C39.5795 53.5852 39.2642 53.8068 38.9915 54.0909C38.7244 54.375 38.5142 54.7045 38.3608 55.0795C38.2074 55.4489 38.1307 55.8437 38.1307 56.2642C38.1307 56.8267 38.2585 57.3409 38.5142 57.8068C38.7756 58.2727 39.1278 58.6449 39.571 58.9233C40.0199 59.2017 40.5284 59.3409 41.0966 59.3409ZM56.6335 62.2386C55.429 62.2386 54.3551 62.017 53.4119 61.5739C52.4744 61.1307 51.7301 60.5199 51.179 59.7415C50.6278 58.9631 50.3409 58.071 50.3182 57.0653H53.8977C53.9375 57.7415 54.2216 58.2898 54.75 58.7102C55.2784 59.1307 55.9062 59.3409 56.6335 59.3409C57.2131 59.3409 57.7244 59.2131 58.1676 58.9574C58.6165 58.696 58.9659 58.3352 59.2159 57.875C59.4716 57.4091 59.5994 56.875 59.5994 56.2727C59.5994 55.6591 59.4688 55.1193 59.2074 54.6534C58.9517 54.1875 58.5966 53.8239 58.142 53.5625C57.6875 53.3011 57.1676 53.1676 56.5824 53.1619C56.071 53.1619 55.5739 53.267 55.0909 53.4773C54.6136 53.6875 54.2415 53.9744 53.9744 54.3381L50.6932 53.75L51.5199 44.5455H62.1903V47.5625H54.5625L54.1108 51.9347H54.2131C54.5199 51.5028 54.983 51.1449 55.6023 50.8608C56.2216 50.5767 56.9148 50.4347 57.6818 50.4347C58.733 50.4347 59.6705 50.6818 60.4943 51.1761C61.3182 51.6705 61.9688 52.3494 62.446 53.2131C62.9233 54.071 63.1591 55.0597 63.1534 56.179C63.1591 57.3551 62.8864 58.4006 62.3352 59.3153C61.7898 60.2244 61.0256 60.9403 60.0426 61.4631C59.0653 61.9801 57.929 62.2386 56.6335 62.2386ZM75.2812 58.7273V57.8068C75.2812 57.108 75.429 56.4659 75.7244 55.8807C76.0256 55.2898 76.4602 54.8182 77.0284 54.4659C77.6023 54.108 78.3011 53.929 79.125 53.929C79.9602 53.929 80.6619 54.1051 81.2301 54.4574C81.804 54.8097 82.2358 55.2812 82.5256 55.8722C82.821 56.4574 82.9688 57.1023 82.9688 57.8068V58.7273C82.9688 59.4261 82.821 60.071 82.5256 60.6619C82.2301 61.2472 81.7955 61.7159 81.2216 62.0682C80.6477 62.4261 79.9489 62.6051 79.125 62.6051C78.2898 62.6051 77.5881 62.4261 77.0199 62.0682C76.4517 61.7159 76.0199 61.2472 75.7244 60.6619C75.429 60.071 75.2812 59.4261 75.2812 58.7273ZM77.7614 57.8068V58.7273C77.7614 59.1307 77.858 59.5114 78.0511 59.8693C78.25 60.2273 78.608 60.4062 79.125 60.4062C79.642 60.4062 79.9943 60.2301 80.1818 59.8778C80.375 59.5256 80.4716 59.142 80.4716 58.7273V57.8068C80.4716 57.392 80.3807 57.0057 80.1989 56.6477C80.017 56.2898 79.6591 56.1108 79.125 56.1108C78.6136 56.1108 78.2585 56.2898 78.0597 56.6477C77.8608 57.0057 77.7614 57.392 77.7614 57.8068ZM66.3239 48.7386V47.8182C66.3239 47.1136 66.4744 46.4687 66.7756 45.8835C67.0767 45.2926 67.5114 44.821 68.0795 44.4688C68.6534 44.1165 69.3466 43.9403 70.1591 43.9403C71 43.9403 71.7045 44.1165 72.2727 44.4688C72.8409 44.821 73.2727 45.2926 73.5682 45.8835C73.8636 46.4687 74.0114 47.1136 74.0114 47.8182V48.7386C74.0114 49.4432 73.8608 50.0881 73.5597 50.6733C73.2642 51.2585 72.8295 51.7273 72.2557 52.0795C71.6875 52.4261 70.9886 52.5994 70.1591 52.5994C69.3295 52.5994 68.6278 52.4233 68.054 52.071C67.4858 51.7131 67.054 51.2443 66.7585 50.6648C66.4688 50.0795 66.3239 49.4375 66.3239 48.7386ZM68.821 47.8182V48.7386C68.821 49.1534 68.9176 49.5369 69.1108 49.8892C69.3097 50.2415 69.6591 50.4176 70.1591 50.4176C70.6818 50.4176 71.0369 50.2415 71.2244 49.8892C71.4176 49.5369 71.5142 49.1534 71.5142 48.7386V47.8182C71.5142 47.4034 71.4233 47.017 71.2415 46.6591C71.0597 46.3011 70.6989 46.1222 70.1591 46.1222C69.6534 46.1222 69.304 46.304 69.1108 46.6676C68.9176 47.0312 68.821 47.4148 68.821 47.8182ZM67.4489 62L79.4489 44.5455H81.6818L69.6818 62H67.4489Z" fill="#6266EB"/>
<path d="M27.9261 76.517L31.0795 71.4545H32.2386V78H31.233V72.9375L28.0966 78H26.9205V71.4545H27.9261V76.517ZM36.7397 78.1364C36.1261 78.1364 35.5977 77.9915 35.1545 77.7017C34.7113 77.4119 34.3704 77.0128 34.1317 76.5043C33.8931 75.9957 33.7738 75.4148 33.7738 74.7614C33.7738 74.0966 33.896 73.5099 34.1403 73.0014C34.3874 72.4901 34.7312 72.0909 35.1715 71.804C35.6147 71.5142 36.1317 71.3693 36.7227 71.3693C37.1829 71.3693 37.5977 71.4545 37.967 71.625C38.3363 71.7955 38.6388 72.0341 38.8746 72.3409C39.1104 72.6477 39.2567 73.0057 39.3136 73.4148H38.3079C38.2312 73.1165 38.0607 72.8523 37.7965 72.6222C37.5352 72.3892 37.1829 72.2727 36.7397 72.2727C36.3477 72.2727 36.0039 72.375 35.7085 72.5795C35.4158 72.7812 35.1871 73.0668 35.0224 73.4361C34.8604 73.8026 34.7795 74.233 34.7795 74.7273C34.7795 75.233 34.859 75.6733 35.0181 76.0483C35.18 76.4233 35.4073 76.7145 35.6999 76.9219C35.9954 77.1293 36.342 77.233 36.7397 77.233C37.0011 77.233 37.2383 77.1875 37.4513 77.0966C37.6644 77.0057 37.8448 76.875 37.9925 76.7045C38.1403 76.5341 38.2454 76.3295 38.3079 76.0909H39.3136C39.2567 76.4773 39.1161 76.8253 38.8917 77.1349C38.6701 77.4418 38.3761 77.6861 38.0096 77.8679C37.646 78.0469 37.2227 78.1364 36.7397 78.1364ZM40.7837 78V71.4545H45.9315V78H44.9258V72.392H41.7894V78H40.7837ZM50.4272 78.1364C49.8363 78.1364 49.3178 77.9957 48.8718 77.7145C48.4286 77.4332 48.082 77.0398 47.832 76.5341C47.5849 76.0284 47.4613 75.4375 47.4613 74.7614C47.4613 74.0795 47.5849 73.4844 47.832 72.9759C48.082 72.4673 48.4286 72.0724 48.8718 71.7912C49.3178 71.5099 49.8363 71.3693 50.4272 71.3693C51.0181 71.3693 51.5352 71.5099 51.9783 71.7912C52.4244 72.0724 52.771 72.4673 53.0181 72.9759C53.2681 73.4844 53.3931 74.0795 53.3931 74.7614C53.3931 75.4375 53.2681 76.0284 53.0181 76.5341C52.771 77.0398 52.4244 77.4332 51.9783 77.7145C51.5352 77.9957 51.0181 78.1364 50.4272 78.1364ZM50.4272 77.233C50.8761 77.233 51.2454 77.1179 51.5352 76.8878C51.8249 76.6577 52.0394 76.3551 52.1786 75.9801C52.3178 75.6051 52.3874 75.1989 52.3874 74.7614C52.3874 74.3239 52.3178 73.9162 52.1786 73.5384C52.0394 73.1605 51.8249 72.8551 51.5352 72.6222C51.2454 72.3892 50.8761 72.2727 50.4272 72.2727C49.9783 72.2727 49.609 72.3892 49.3192 72.6222C49.0295 72.8551 48.815 73.1605 48.6758 73.5384C48.5366 73.9162 48.467 74.3239 48.467 74.7614C48.467 75.1989 48.5366 75.6051 48.6758 75.9801C48.815 76.3551 49.0295 76.6577 49.3192 76.8878C49.609 77.1179 49.9783 77.233 50.4272 77.233ZM54.3487 78V77.0625H54.5874C54.7834 77.0625 54.9467 77.0241 55.0774 76.9474C55.2081 76.8679 55.3132 76.7301 55.3928 76.5341C55.4751 76.3352 55.5376 76.0597 55.5803 75.7074C55.6257 75.3523 55.6584 74.9006 55.6783 74.3523L55.7976 71.4545H60.1612V78H59.1555V72.392H56.7521L56.6499 74.7273C56.6271 75.2642 56.5788 75.7372 56.505 76.1463C56.4339 76.5526 56.3246 76.8935 56.1768 77.169C56.032 77.4446 55.8388 77.652 55.5973 77.7912C55.3558 77.9304 55.0533 78 54.6896 78H54.3487ZM66.3871 74.267V75.2045H62.7734V74.267H66.3871ZM63.0121 71.4545V78H62.0064V71.4545H63.0121ZM67.1541 71.4545V78H66.1484V71.4545H67.1541ZM71.7351 78.1364C71.1044 78.1364 70.5604 77.9972 70.103 77.7188C69.6484 77.4375 69.2976 77.0455 69.0504 76.5426C68.8061 76.0369 68.6839 75.4489 68.6839 74.7784C68.6839 74.108 68.8061 73.517 69.0504 73.0057C69.2976 72.4915 69.6413 72.0909 70.0817 71.804C70.5249 71.5142 71.0419 71.3693 71.6328 71.3693C71.9737 71.3693 72.3104 71.4261 72.6428 71.5398C72.9751 71.6534 73.2777 71.8381 73.5504 72.0938C73.8232 72.3466 74.0405 72.6818 74.2024 73.0994C74.3643 73.517 74.4453 74.0312 74.4453 74.642V75.0682H69.3999V74.1989H73.4226C73.4226 73.8295 73.3487 73.5 73.201 73.2102C73.0561 72.9205 72.8487 72.6918 72.5788 72.5241C72.3118 72.3565 71.9964 72.2727 71.6328 72.2727C71.2322 72.2727 70.8857 72.3722 70.593 72.571C70.3033 72.767 70.0803 73.0227 69.924 73.3381C69.7678 73.6534 69.6896 73.9915 69.6896 74.3523V74.9318C69.6896 75.4261 69.7749 75.8452 69.9453 76.1889C70.1186 76.5298 70.3587 76.7898 70.6655 76.9688C70.9723 77.1449 71.3288 77.233 71.7351 77.233C71.9993 77.233 72.2379 77.196 72.451 77.1222C72.6669 77.0455 72.853 76.9318 73.0092 76.7812C73.1655 76.6278 73.2862 76.4375 73.3714 76.2102L74.343 76.483C74.2408 76.8125 74.0689 77.1023 73.8274 77.3523C73.5859 77.5994 73.2876 77.7926 72.9325 77.9318C72.5774 78.0682 72.1783 78.1364 71.7351 78.1364ZM80.3558 74.267V75.2045H76.7422V74.267H80.3558ZM76.9808 71.4545V78H75.9751V71.4545H76.9808ZM81.1229 71.4545V78H80.1172V71.4545H81.1229ZM85.6186 78.1364C85.0277 78.1364 84.5092 77.9957 84.0632 77.7145C83.62 77.4332 83.2734 77.0398 83.0234 76.5341C82.7763 76.0284 82.6527 75.4375 82.6527 74.7614C82.6527 74.0795 82.7763 73.4844 83.0234 72.9759C83.2734 72.4673 83.62 72.0724 84.0632 71.7912C84.5092 71.5099 85.0277 71.3693 85.6186 71.3693C86.2095 71.3693 86.7266 71.5099 87.1697 71.7912C87.6158 72.0724 87.9624 72.4673 88.2095 72.9759C88.4595 73.4844 88.5845 74.0795 88.5845 74.7614C88.5845 75.4375 88.4595 76.0284 88.2095 76.5341C87.9624 77.0398 87.6158 77.4332 87.1697 77.7145C86.7266 77.9957 86.2095 78.1364 85.6186 78.1364ZM85.6186 77.233C86.0675 77.233 86.4368 77.1179 86.7266 76.8878C87.0163 76.6577 87.2308 76.3551 87.37 75.9801C87.5092 75.6051 87.5788 75.1989 87.5788 74.7614C87.5788 74.3239 87.5092 73.9162 87.37 73.5384C87.2308 73.1605 87.0163 72.8551 86.7266 72.6222C86.4368 72.3892 86.0675 72.2727 85.6186 72.2727C85.1697 72.2727 84.8004 72.3892 84.5107 72.6222C84.2209 72.8551 84.0064 73.1605 83.8672 73.5384C83.728 73.9162 83.6584 74.3239 83.6584 74.7614C83.6584 75.1989 83.728 75.6051 83.8672 75.9801C84.0064 76.3551 84.2209 76.6577 84.5107 76.8878C84.8004 77.1179 85.1697 77.233 85.6186 77.233Z" fill="#7F8A9B"/>
<path d="M117 58.5C117 90.8087 90.8087 117 58.5 117C26.1913 117 0 90.8087 0 58.5C0 26.1913 26.1913 0 58.5 0C90.8087 0 117 26.1913 117 58.5ZM7.605 58.5C7.605 86.6085 30.3915 109.395 58.5 109.395C86.6085 109.395 109.395 86.6085 109.395 58.5C109.395 30.3915 86.6085 7.605 58.5 7.605C30.3915 7.605 7.605 30.3915 7.605 58.5Z" fill="#EAEAFF"/>
<path d="M58.5 3.8025C58.5 1.70244 60.2043 -0.0128744 62.2999 0.123528C70.9889 0.689088 79.4593 3.18874 87.0843 7.45898C95.8174 12.3498 103.15 19.3995 108.379 27.9338C113.609 36.4682 116.562 46.2017 116.955 56.2033C117.348 66.2049 115.168 76.1401 110.624 85.0584C106.08 93.9768 99.3233 101.58 91.0009 107.141C82.6784 112.702 73.0683 116.034 63.0899 116.82C53.1114 117.605 43.0983 115.817 34.0084 111.626C26.0718 107.968 19.0708 102.584 13.506 95.887C12.1638 94.2718 12.5498 91.8848 14.2488 90.6504C15.9478 89.416 18.3152 89.8033 19.673 91.4054C24.462 97.0563 30.4377 101.606 37.1923 104.72C45.1005 108.366 53.8119 109.921 62.4932 109.238C71.1745 108.555 79.5352 105.656 86.7758 100.818C94.0163 95.9797 99.8944 89.3648 103.848 81.6058C107.801 73.8469 109.698 65.2033 109.356 56.5019C109.014 47.8005 106.445 39.3323 101.895 31.9074C97.3451 24.4825 90.9662 18.3493 83.3684 14.0943C76.8789 10.46 69.6857 8.29987 62.2991 7.74697C60.2049 7.59022 58.5 5.90256 58.5 3.8025Z" fill="#6266EB"/>
</svg>
