<svg width="24" height="24" viewBox="0 0 24 24" fill="none" xmlns="http://www.w3.org/2000/svg">
<path fill-rule="evenodd" clip-rule="evenodd" d="M4 16C4 15.4477 4.44772 15 5 15H19C19.5523 15 20 15.4477 20 16V19C20 20.6569 18.6569 22 17 22H7C5.34315 22 4 20.6569 4 19V16ZM6 17V19C6 19.5523 6.44772 20 7 20H17C17.5523 20 18 19.5523 18 19V17H6Z" fill="#626D7D"/>
<path fill-rule="evenodd" clip-rule="evenodd" d="M3 7C3 6.44772 3.44772 6 4 6H20C20.5523 6 21 6.44772 21 7V14C21 15.6569 19.6569 17 18 17H6C4.34315 17 3 15.6569 3 14V7ZM5 8V14C5 14.5523 5.44772 15 6 15H18C18.5523 15 19 14.5523 19 14V8H5Z" fill="#626D7D"/>
<path d="M10.5 12.5C10.5 11.6716 11.1716 11 12 11C12.8284 11 13.5 11.6716 13.5 12.5C13.5 13.3284 12.8284 14 12 14C11.1716 14 10.5 13.3284 10.5 12.5Z" fill="#626D7D"/>
<path fill-rule="evenodd" clip-rule="evenodd" d="M8 5C8 3.34315 9.34315 2 11 2H13C14.6569 2 16 3.34315 16 5V7C16 7.55228 15.5523 8 15 8H9C8.44772 8 8 7.55228 8 7V5ZM11 4C10.4477 4 10 4.44772 10 5V6H14V5C14 4.44772 13.5523 4 13 4H11Z" fill="#626D7D"/>
</svg>
