<svg width="24" height="24" viewBox="0 0 24 24" fill="none" xmlns="http://www.w3.org/2000/svg">
<path fill-rule="evenodd" clip-rule="evenodd" d="M2 4C2 3.44772 2.44772 3 3 3H5C5.5172 3 5.94907 3.39439 5.99589 3.90946L6.18594 6H21C21.2899 6 21.5655 6.1258 21.7555 6.3448C21.9454 6.5638 22.0309 6.85444 21.99 7.14142L21.2181 12.5443C21.0184 13.9423 19.8707 15.0118 18.462 15.1124L8.02793 15.8577C6.39785 15.9741 4.97446 14.7644 4.82651 13.1369L4.08679 5H3C2.44772 5 2 4.55228 2 4ZM6.36776 8L6.81829 12.9559C6.86761 13.4984 7.34207 13.9016 7.88543 13.8628L18.3195 13.1175C18.7891 13.0839 19.1716 12.7275 19.2382 12.2614L19.847 8H6.36776Z" fill="#626D7D"/>
<path d="M10 19.5C10 20.3284 9.32843 21 8.5 21C7.67157 21 7 20.3284 7 19.5C7 18.6716 7.67157 18 8.5 18C9.32843 18 10 18.6716 10 19.5Z" fill="#626D7D"/>
<path d="M19 19.5C19 20.3284 18.3284 21 17.5 21C16.6716 21 16 20.3284 16 19.5C16 18.6716 16.6716 18 17.5 18C18.3284 18 19 18.6716 19 19.5Z" fill="#626D7D"/>
</svg>
