<svg width="24" height="24" viewBox="0 0 24 24" fill="none" xmlns="http://www.w3.org/2000/svg">
<path fill-rule="evenodd" clip-rule="evenodd" d="M0.000556482 10.5967C0.0284638 9.05792 1.12876 7.5 3.06098 7.5H13.7649C15.8498 7.5 17.6338 7.50671 19.0486 7.68582C20.4375 7.86166 21.7392 8.22937 22.6407 9.18526C24.2501 10.8918 24.6453 13.8484 22.6407 15.974C22.1776 16.465 21.6815 16.8364 21.0864 17.086C20.5061 17.3296 19.895 17.4304 19.2418 17.4725C18.5966 17.5141 17.8433 17.5013 16.9719 17.4811C16.858 17.4785 16.7415 17.4757 16.6222 17.4729C15.8144 17.4536 14.8798 17.4312 13.7649 17.4312H12.5607V11.3306H14.9691V14.8857C15.6041 14.8941 16.1716 14.9077 16.6784 14.9198C16.797 14.9226 16.9124 14.9254 17.0245 14.928C17.9136 14.9486 18.5666 14.9576 19.0956 14.9234C19.6167 14.8898 19.9479 14.8173 20.2003 14.7115C20.4379 14.6117 20.6649 14.4575 20.9377 14.1682C21.8767 13.1726 21.7368 11.8383 20.9378 10.9911C20.635 10.6701 20.0317 10.3822 18.7631 10.2216C17.5204 10.0642 15.8943 10.0537 13.7649 10.0537H3.06098C2.76882 10.0537 2.62973 10.1558 2.55826 10.2352C2.47118 10.3318 2.41151 10.4793 2.40849 10.6458C2.40549 10.811 2.45834 10.9372 2.52622 11.0136C2.57935 11.0734 2.71624 11.1887 3.06098 11.1887H8.54673C9.50366 11.1887 10.3389 11.5084 10.941 12.1195C11.5378 12.7251 11.8223 13.5359 11.8079 14.3345C11.7777 15.9957 10.4989 17.4312 8.54673 17.4312H0.518804V14.8775H8.54673C8.94474 14.8775 9.14744 14.7465 9.24349 14.6502C9.34843 14.545 9.39763 14.4118 9.39992 14.2854C9.40216 14.1619 9.3606 14.0505 9.27581 13.9645C9.19643 13.8839 8.99469 13.7425 8.54673 13.7425H3.06098C2.13463 13.7425 1.33493 13.3968 0.773427 12.7649C0.226663 12.1497 -0.0131729 11.3537 0.000556482 10.5967Z" fill="#ADB3BE"/>
</svg>
