<svg width="40" height="40" viewBox="0 0 40 40" fill="none" xmlns="http://www.w3.org/2000/svg">
<path d="M34.2855 9.37659C35.126 10.4823 35.8448 11.6905 36.4196 12.9783L20.1924 25.1484L13.4122 20.8237V15.621L20.1924 19.9457L34.2855 9.37659Z" fill="#21A038"/>
<path d="M6.49577 20.4567C6.49577 20.2234 6.50138 19.9914 6.51256 19.7608L2.40363 19.5516C2.38965 19.8519 2.38126 20.1536 2.38126 20.4567C2.38126 25.4602 4.37419 29.9913 7.59783 33.2714L10.511 30.3071C8.03278 27.7826 6.49577 24.299 6.49577 20.4567Z" fill="url(#paint0_linear_1_1007)"/>
<path d="M20.1904 6.52054C20.4198 6.52054 20.6477 6.52908 20.8743 6.54047L21.08 2.3581C20.7849 2.34387 20.4884 2.33533 20.1904 2.33533C15.2732 2.33533 10.8202 4.36318 7.59656 7.64334L10.5097 10.6076C12.9907 8.08307 16.4144 6.52054 20.1904 6.52054Z" fill="url(#paint1_linear_1_1007)"/>
<path d="M20.1913 34.3926C19.9619 34.3926 19.734 34.387 19.5074 34.3755L19.3018 38.5564C19.5968 38.5707 19.8934 38.5792 20.1913 38.5792C25.1085 38.5792 29.5615 36.5513 32.7852 33.2712L29.872 30.307C27.391 32.8287 23.9673 34.3926 20.1913 34.3926Z" fill="url(#paint2_linear_1_1007)"/>
<path d="M27.9144 8.95256L31.3786 6.35546C28.3214 3.84092 24.4307 2.33533 20.193 2.33533V6.52197C23.0559 6.52054 25.7145 7.41992 27.9144 8.95256Z" fill="url(#paint3_linear_1_1007)"/>
<path d="M38 20.4567C38 19.348 37.902 18.2636 37.7146 17.2092L33.8812 20.0838C33.884 20.2076 33.8868 20.3313 33.8868 20.4552C33.8868 24.5465 32.1442 28.2322 29.375 30.7838L32.14 33.8932C35.7385 30.5789 38 25.7859 38 20.4567Z" fill="#21A038"/>
<path d="M20.1926 34.3927C16.1718 34.3927 12.5494 32.6195 10.0419 29.8019L6.98605 32.6152C10.2447 36.2783 14.955 38.5792 20.1926 38.5792V34.3927Z" fill="url(#paint4_linear_1_1007)"/>
<path d="M11.0075 10.1279L8.24256 7.01855C4.64271 10.3343 2.38126 15.1271 2.38126 20.4566H6.49577C6.49718 16.3638 8.23837 12.6794 11.0075 10.1279Z" fill="url(#paint5_linear_1_1007)"/>
<defs>
<linearGradient id="paint0_linear_1_1007" x1="6.70498" y1="32.7467" x2="2.6833" y2="21.3221" gradientUnits="userSpaceOnUse">
<stop offset="0.1444" stop-color="#F2E913"/>
<stop offset="0.3037" stop-color="#E7E518"/>
<stop offset="0.5823" stop-color="#CADB26"/>
<stop offset="0.891" stop-color="#A3CD39"/>
</linearGradient>
<linearGradient id="paint1_linear_1_1007" x1="8.77245" y1="6.72755" x2="18.6163" y2="3.04078" gradientUnits="userSpaceOnUse">
<stop offset="0.0592" stop-color="#0FA8E0"/>
<stop offset="0.5385" stop-color="#0099F9"/>
<stop offset="0.9234" stop-color="#0291EB"/>
</linearGradient>
<linearGradient id="paint2_linear_1_1007" x1="19.0302" y1="34.6587" x2="31.3543" y2="31.9214" gradientUnits="userSpaceOnUse">
<stop offset="0.1226" stop-color="#A3CD39"/>
<stop offset="0.2846" stop-color="#86C339"/>
<stop offset="0.8693" stop-color="#21A038"/>
</linearGradient>
<linearGradient id="paint3_linear_1_1007" x1="19.3323" y1="5.42319" x2="29.3164" y2="8.4507" gradientUnits="userSpaceOnUse">
<stop offset="0.0566" stop-color="#0291EB"/>
<stop offset="0.79" stop-color="#0C8ACB"/>
</linearGradient>
<linearGradient id="paint4_linear_1_1007" x1="8.01801" y1="33.8058" x2="18.6131" y2="37.6963" gradientUnits="userSpaceOnUse">
<stop offset="0.1324" stop-color="#F2E913"/>
<stop offset="0.2977" stop-color="#EBE716"/>
<stop offset="0.5306" stop-color="#D9E01F"/>
<stop offset="0.8023" stop-color="#BBD62D"/>
<stop offset="0.9829" stop-color="#A3CD39"/>
</linearGradient>
<linearGradient id="paint5_linear_1_1007" x1="6.19517" y1="20.9636" x2="10.512" y2="9.92724" gradientUnits="userSpaceOnUse">
<stop offset="0.0698" stop-color="#A3CD39"/>
<stop offset="0.2599" stop-color="#81C55F"/>
<stop offset="0.9216" stop-color="#0FA8E0"/>
</linearGradient>
</defs>
</svg>
