<svg width="22" height="21" viewBox="0 0 22 21" fill="none" xmlns="http://www.w3.org/2000/svg">
<path d="M10.0257 1.46861C10.3832 0.693734 11.4844 0.693733 11.8419 1.4686L14.1305 6.43037C14.2762 6.74618 14.5754 6.96362 14.9208 7.00457L20.347 7.64793C21.1944 7.7484 21.5347 8.79579 20.9082 9.37516L16.8965 13.0851C16.6411 13.3212 16.5268 13.673 16.5946 14.0141L17.6595 19.3735C17.8258 20.2105 16.9349 20.8578 16.1902 20.441L11.4222 17.7721C11.1188 17.6022 10.7488 17.6022 10.4454 17.7721L5.67735 20.441C4.93274 20.8578 4.04178 20.2105 4.20808 19.3735L5.27298 14.0141C5.34076 13.673 5.22645 13.3212 4.97111 13.0851L0.959417 9.37516C0.332917 8.79579 0.673233 7.7484 1.52063 7.64793L6.94678 7.00457C7.29214 6.96362 7.59143 6.74618 7.73709 6.43037L10.0257 1.46861Z" fill="#FFA31F"/>
</svg>
