<svg width="24" height="24" viewBox="0 0 24 24" fill="none" xmlns="http://www.w3.org/2000/svg">
<path fill-rule="evenodd" clip-rule="evenodd" d="M9 12C9 11.4477 9.44772 11 10 11L17.5858 11L16.2929 9.70711C15.9024 9.31658 15.9024 8.68342 16.2929 8.29289C16.6834 7.90237 17.3166 7.90237 17.7071 8.29289L20.7071 11.2929C21.0976 11.6834 21.0976 12.3166 20.7071 12.7071L17.7071 15.7071C17.3166 16.0976 16.6834 16.0976 16.2929 15.7071C15.9024 15.3166 15.9024 14.6834 16.2929 14.2929L17.5858 13L10 13C9.44772 13 9 12.5523 9 12Z" fill="#7F8A9B"/>
<path fill-rule="evenodd" clip-rule="evenodd" d="M11 3C13 3 13 5 11 5L6.00001 5C5.44773 5 5.00001 5.44772 5.00001 6L5.00001 18C5.00001 18.5523 5.44773 19 6.00001 19L10.9999 19C12.9999 19 13 21 11.0001 21L6.00001 21C4.34316 21 3.00001 19.6569 3.00001 18L3.00001 6C3.00001 4.34315 4.34316 3 6.00001 3L11 3Z" fill="#7F8A9B"/>
</svg>
