<svg width="38" height="39" viewBox="0 0 38 39" fill="none" xmlns="http://www.w3.org/2000/svg">
<path d="M33.9998 7.84546C34.8824 9.00645 35.6372 10.275 36.2407 11.6273L19.2021 24.4058L12.0829 19.8649V14.4021L19.2021 18.943L33.9998 7.84546Z" fill="#21A038"/>
<path d="M4.82065 19.4795C4.82065 19.2345 4.82654 18.9909 4.83828 18.7488L0.523904 18.5292C0.50922 18.8444 0.500408 19.1612 0.500408 19.4795C0.500408 24.7332 2.59299 29.4908 5.97781 32.935L9.03665 29.8224C6.43451 27.1717 4.82065 23.5139 4.82065 19.4795Z" fill="url(#paint0_linear_4_530)"/>
<path d="M19.1999 4.84663C19.4409 4.84663 19.6801 4.85559 19.918 4.86755L20.134 0.476056C19.8242 0.461114 19.5129 0.452148 19.1999 0.452148C14.0369 0.452148 9.36125 2.58139 5.97642 6.02556L9.03524 9.13799C11.6403 6.48727 15.2351 4.84663 19.1999 4.84663Z" fill="url(#paint1_linear_4_530)"/>
<path d="M19.2009 34.1123C18.96 34.1123 18.7207 34.1063 18.4828 34.0943L18.2669 38.4843C18.5767 38.4993 18.888 38.5081 19.2009 38.5081C24.3639 38.5081 29.0396 36.3789 32.4245 32.9348L29.3656 29.8224C26.7605 32.4701 23.1657 34.1123 19.2009 34.1123Z" fill="url(#paint2_linear_4_530)"/>
<path d="M27.3102 7.40024L30.9476 4.67329C27.7375 2.03302 23.6522 0.452148 19.2027 0.452148V4.84813C22.2088 4.84663 25.0002 5.79097 27.3102 7.40024Z" fill="url(#paint3_linear_4_530)"/>
<path d="M37.9 19.4795C37.9 18.3154 37.7971 17.1768 37.6004 16.0697L33.5753 19.088C33.5782 19.218 33.5811 19.3479 33.5811 19.4779C33.5811 23.7738 31.7514 27.6438 28.8438 30.323L31.747 33.5878C35.5254 30.1078 37.9 25.0752 37.9 19.4795Z" fill="#21A038"/>
<path d="M19.2023 34.1123C14.9804 34.1123 11.177 32.2505 8.54402 29.292L5.33541 32.246C8.75695 36.0922 13.7028 38.5082 19.2023 38.5082V34.1123Z" fill="url(#paint4_linear_4_530)"/>
<path d="M9.55795 8.63448L6.65478 5.36963C2.87493 8.85114 0.500408 13.8836 0.500408 19.4795H4.82065C4.82213 15.1822 6.65038 11.3136 9.55795 8.63448Z" fill="url(#paint5_linear_4_530)"/>
<defs>
<linearGradient id="paint0_linear_4_530" x1="5.04032" y1="32.3839" x2="0.817557" y2="20.3882" gradientUnits="userSpaceOnUse">
<stop offset="0.1444" stop-color="#F2E913"/>
<stop offset="0.3037" stop-color="#E7E518"/>
<stop offset="0.5823" stop-color="#CADB26"/>
<stop offset="0.891" stop-color="#A3CD39"/>
</linearGradient>
<linearGradient id="paint1_linear_4_530" x1="7.21111" y1="5.06398" x2="17.5472" y2="1.19288" gradientUnits="userSpaceOnUse">
<stop offset="0.0592" stop-color="#0FA8E0"/>
<stop offset="0.5385" stop-color="#0099F9"/>
<stop offset="0.9234" stop-color="#0291EB"/>
</linearGradient>
<linearGradient id="paint2_linear_4_530" x1="17.9817" y1="34.3916" x2="30.922" y2="31.5175" gradientUnits="userSpaceOnUse">
<stop offset="0.1226" stop-color="#A3CD39"/>
<stop offset="0.2846" stop-color="#86C339"/>
<stop offset="0.8693" stop-color="#21A038"/>
</linearGradient>
<linearGradient id="paint3_linear_4_530" x1="18.2989" y1="3.69441" x2="28.7822" y2="6.87329" gradientUnits="userSpaceOnUse">
<stop offset="0.0566" stop-color="#0291EB"/>
<stop offset="0.79" stop-color="#0C8ACB"/>
</linearGradient>
<linearGradient id="paint4_linear_4_530" x1="6.41896" y1="33.4962" x2="17.5438" y2="37.5812" gradientUnits="userSpaceOnUse">
<stop offset="0.1324" stop-color="#F2E913"/>
<stop offset="0.2977" stop-color="#EBE716"/>
<stop offset="0.5306" stop-color="#D9E01F"/>
<stop offset="0.8023" stop-color="#BBD62D"/>
<stop offset="0.9829" stop-color="#A3CD39"/>
</linearGradient>
<linearGradient id="paint5_linear_4_530" x1="4.50502" y1="20.0119" x2="9.03766" y2="8.42375" gradientUnits="userSpaceOnUse">
<stop offset="0.0698" stop-color="#A3CD39"/>
<stop offset="0.2599" stop-color="#81C55F"/>
<stop offset="0.9216" stop-color="#0FA8E0"/>
</linearGradient>
</defs>
</svg>
