<svg width="129" height="28" viewBox="0 0 129 28" fill="none" xmlns="http://www.w3.org/2000/svg">
<path fill-rule="evenodd" clip-rule="evenodd" d="M0.6972 9.54553C0.767355 5.89746 3.53334 2.20398 8.3907 2.20398H35.2989C40.5401 2.20398 45.0248 2.2199 48.5815 2.64453C52.073 3.06138 55.3452 3.93314 57.6115 6.19935C61.6574 10.245 62.6509 17.2545 57.6116 22.2938C56.4474 23.458 55.2002 24.3383 53.7043 24.9303C52.2453 25.5076 50.7091 25.7466 49.0671 25.8464C47.4451 25.9451 45.5515 25.9148 43.361 25.867C43.0746 25.8607 42.7817 25.8541 42.4819 25.8473C40.4511 25.8016 38.1016 25.7487 35.2989 25.7487H32.2717V11.2855H38.3261V19.7137C39.9225 19.7337 41.3491 19.7659 42.623 19.7946C42.9213 19.8014 43.2113 19.8079 43.4931 19.814C45.7282 19.8628 47.3697 19.8842 48.6996 19.8033C50.0095 19.7236 50.8422 19.5517 51.4766 19.3007C52.0741 19.0642 52.6447 18.6985 53.3305 18.0128C55.6909 15.6524 55.3393 12.4892 53.3306 10.4805C52.5696 9.71956 51.0528 9.03692 47.8637 8.65618C44.7397 8.28321 40.6521 8.25833 35.2989 8.25833H8.3907C7.65625 8.25833 7.30661 8.50031 7.12692 8.68844C6.90802 8.91763 6.75802 9.26719 6.75043 9.66194C6.7429 10.0535 6.87575 10.3528 7.04638 10.5338C7.17994 10.6756 7.52408 10.9491 8.3907 10.9491H22.1812C24.5868 10.9491 26.6863 11.707 28.2001 13.1558C29.7002 14.5915 30.4156 16.5136 30.3792 18.4071C30.3035 22.3454 27.0888 25.7487 22.1812 25.7487H2.00001V19.6943H22.1812C23.1817 19.6943 23.6913 19.3837 23.9327 19.1554C24.1965 18.9059 24.3202 18.5903 24.326 18.2907C24.3316 17.9979 24.2271 17.7337 24.014 17.5297C23.8144 17.3388 23.3073 17.0035 22.1812 17.0035H8.3907C6.06198 17.0035 4.05165 16.1839 2.64009 14.6859C1.2656 13.2273 0.662686 11.3403 0.6972 9.54553Z" fill="#6266EB"/>
<path d="M69.3715 8.45882C69.3715 9.35896 69.7921 10.037 70.6332 10.493C71.4783 10.945 72.5632 11.171 73.8879 11.171C75.2165 11.171 76.2896 10.9391 77.1072 10.4753C77.9248 10.0115 78.3316 9.33341 78.3277 8.44113C78.3316 7.59208 78.0191 6.95334 77.3902 6.52489C76.7613 6.0925 75.8277 5.76035 74.5895 5.52844C73.4693 5.32404 72.7637 5.1845 72.4728 5.10981C72.1819 5.03513 72.0365 4.8838 72.0365 4.65581C72.0365 4.44748 72.1819 4.28435 72.4728 4.16643C72.7637 4.04851 73.2138 3.98955 73.823 3.98955C74.4362 3.98955 74.8981 4.07799 75.2086 4.25487C75.5192 4.42783 75.6744 4.65581 75.6744 4.93883V5.11571H78.1154V4.91524C78.1194 4.14874 77.7263 3.51196 76.9362 3.00489C76.15 2.49783 75.1104 2.24429 73.8171 2.24429C72.5161 2.24429 71.4744 2.48014 70.6922 2.95183C69.91 3.42352 69.5189 4.06816 69.5189 4.88576C69.5228 5.6444 69.8215 6.23991 70.4151 6.67229C71.0126 7.10074 71.9343 7.41717 73.1804 7.62157C74.4028 7.83383 75.1477 7.99302 75.415 8.09915C75.6862 8.20528 75.8218 8.40182 75.8218 8.68877C75.8218 8.91675 75.6548 9.09756 75.3207 9.23121C74.9865 9.36486 74.505 9.43168 73.8761 9.43168C73.2511 9.43168 72.7617 9.34913 72.408 9.18404C72.0581 9.01502 71.8832 8.76345 71.8832 8.42934V8.24656H69.3715V8.45882Z" fill="black"/>
<path d="M79.2888 7.71001C79.2888 8.9364 79.5718 9.81296 80.1378 10.3397C80.7078 10.8625 81.433 11.1239 82.3135 11.1239C82.9188 11.1239 83.4652 11.0413 83.9526 10.8762C84.4439 10.7111 84.8488 10.4262 85.1672 10.0213L85.2203 11H87.5021V4.64991H85.1436V8.335C84.9471 8.6298 84.6837 8.88137 84.3535 9.0897C84.0273 9.2941 83.6558 9.3963 83.2392 9.3963C82.7557 9.3963 82.3685 9.28034 82.0776 9.04843C81.7907 8.81258 81.6472 8.39199 81.6472 7.78666V4.64991H79.2888V7.71001Z" fill="black"/>
<path d="M88.9112 13.4528H91.2697V10.2807C91.5095 10.5559 91.879 10.7642 92.3782 10.9057C92.8813 11.0472 93.4395 11.118 94.0527 11.118C95.1415 11.118 96.0239 10.831 96.7 10.2571C97.3801 9.67932 97.7201 8.89906 97.7201 7.91637V7.7277C97.7201 6.74108 97.3722 5.96082 96.6764 5.38693C95.9846 4.81304 95.0747 4.5261 93.9465 4.5261C93.3373 4.5261 92.7791 4.61257 92.272 4.78553C91.765 4.95455 91.4092 5.17664 91.2048 5.45179L91.1577 4.64991H88.9112V13.4528ZM91.2697 8.49419V7.1145C91.4269 6.87079 91.6785 6.66443 92.0244 6.4954C92.3742 6.32638 92.7968 6.24187 93.2921 6.24187C93.9682 6.24187 94.4713 6.348 94.8015 6.56026C95.1356 6.76859 95.3027 7.1145 95.3027 7.59798V8.04609C95.3027 8.52957 95.1356 8.87744 94.8015 9.0897C94.4713 9.30196 93.9721 9.40809 93.3039 9.40809C92.8282 9.40809 92.4037 9.31965 92.0303 9.14277C91.6608 8.96588 91.4073 8.74969 91.2697 8.49419Z" fill="black"/>
<path d="M98.805 13.4528H101.163V10.2807C101.403 10.5559 101.773 10.7642 102.272 10.9057C102.775 11.0472 103.333 11.118 103.946 11.118C105.035 11.118 105.918 10.831 106.594 10.2571C107.274 9.67932 107.614 8.89906 107.614 7.91637V7.7277C107.614 6.74108 107.266 5.96082 106.57 5.38693C105.878 4.81304 104.968 4.5261 103.84 4.5261C103.231 4.5261 102.673 4.61257 102.166 4.78553C101.659 4.95455 101.303 5.17664 101.099 5.45179L101.051 4.64991H98.805V13.4528ZM101.163 8.49419V7.1145C101.321 6.87079 101.572 6.66443 101.918 6.4954C102.268 6.32638 102.691 6.24187 103.186 6.24187C103.862 6.24187 104.365 6.348 104.695 6.56026C105.029 6.76859 105.196 7.1145 105.196 7.59798V8.04609C105.196 8.52957 105.029 8.87744 104.695 9.0897C104.365 9.30196 103.866 9.40809 103.198 9.40809C102.722 9.40809 102.297 9.31965 101.924 9.14277C101.555 8.96588 101.301 8.74969 101.163 8.49419Z" fill="black"/>
<path d="M108.687 11H111.045V1.98486H108.687V11Z" fill="black"/>
<path d="M112.625 13.4469C112.775 13.4941 112.95 13.5295 113.15 13.5531C113.355 13.5767 113.581 13.5885 113.828 13.5885C114.587 13.5885 115.218 13.4273 115.721 13.105C116.228 12.7826 116.643 12.3169 116.965 11.7076L120.874 4.64991H118.616L116.741 8.04019C116.662 8.18956 116.596 8.34286 116.541 8.50009C116.489 8.65732 116.438 8.83617 116.387 9.03664H116.364C116.309 8.83617 116.25 8.65535 116.187 8.49419C116.128 8.33303 116.059 8.1817 115.98 8.04019L114.158 4.64991H111.605L115.155 10.9234H115.361C115.137 11.4069 114.892 11.6978 114.624 11.796C114.361 11.8982 114.033 11.9493 113.64 11.9493C113.478 11.9493 113.306 11.9356 113.121 11.9081C112.94 11.8845 112.783 11.857 112.649 11.8255L112.625 13.4469Z" fill="black"/>
<path d="M69.8608 25H73.7346C75.244 25 76.5136 24.6325 77.5435 23.8975C78.5734 23.1624 79.0883 22.1267 79.0883 20.7902V20.6251C79.0883 19.2847 78.5714 18.249 77.5376 17.5179C76.5077 16.7828 75.2401 16.4153 73.7346 16.4153H69.8608V25ZM72.2783 23.2784V18.1428H73.6933C74.5463 18.1428 75.242 18.3433 75.7806 18.7443C76.323 19.1413 76.5942 19.7525 76.5942 20.5779V20.8374C76.5942 21.6628 76.323 22.276 75.7806 22.677C75.242 23.0779 74.5463 23.2784 73.6933 23.2784H72.2783Z" fill="black"/>
<path d="M80.3088 25H82.6731V18.6499H80.3088V25ZM80.1437 17.0933C80.1437 17.4314 80.2597 17.7164 80.4916 17.9483C80.7235 18.1802 81.0556 18.2961 81.488 18.2961C81.9204 18.2961 82.2525 18.1822 82.4845 17.9542C82.7203 17.7223 82.8382 17.4353 82.8382 17.0933C82.8382 16.7553 82.7223 16.4723 82.4904 16.2443C82.2584 16.0124 81.9243 15.8964 81.488 15.8964C81.0556 15.8964 80.7235 16.0124 80.4916 16.2443C80.2597 16.4723 80.1437 16.7553 80.1437 17.0933Z" fill="black"/>
<path d="M84.0646 25H86.429V21.4683C86.5862 21.1813 86.8338 20.9474 87.1719 20.7666C87.5099 20.5819 87.8932 20.4895 88.3216 20.4895C88.4435 20.4895 88.5535 20.4954 88.6518 20.5072C88.754 20.5151 88.8582 20.5288 88.9643 20.5485V18.5615C88.9132 18.5458 88.8326 18.53 88.7226 18.5143C88.6125 18.4946 88.5005 18.4848 88.3865 18.4848C87.958 18.4848 87.5689 18.5831 87.2191 18.7796C86.8731 18.9722 86.6019 19.2022 86.4054 19.4695L86.3582 18.6499H84.0646V25Z" fill="black"/>
<path d="M89.436 21.9164C89.436 22.9069 89.8487 23.699 90.6742 24.2925C91.5036 24.8861 92.6297 25.1828 94.0527 25.1828C94.9489 25.1828 95.737 25.0669 96.417 24.835C97.101 24.5991 97.5786 24.263 97.8498 23.8267L96.1812 22.73C95.9728 22.9384 95.68 23.127 95.3027 23.2961C94.9292 23.4612 94.5008 23.5437 94.0173 23.5437C93.2822 23.5437 92.7142 23.414 92.3133 23.1546C91.9124 22.8951 91.7119 22.5237 91.7119 22.0402V21.598C91.7119 21.0948 91.8967 20.7116 92.2661 20.4482C92.6396 20.1849 93.1348 20.0532 93.752 20.0532C94.5185 20.0532 95.0432 20.1613 95.3262 20.3775C95.6132 20.5937 95.7567 20.8433 95.7567 21.1263V21.0968H91.0221V22.4352H98.0679V21.6275C98.0679 20.6369 97.6906 19.8645 96.9359 19.3103C96.1851 18.7521 95.1631 18.473 93.8699 18.473C92.5885 18.473 91.5291 18.7698 90.6919 19.3633C89.8546 19.953 89.436 20.7411 89.436 21.7277V21.9164Z" fill="black"/>
<path d="M98.687 21.9164C98.687 22.9384 99.1076 23.7383 99.9488 24.3161C100.79 24.89 101.889 25.1769 103.245 25.1769C104.55 25.1769 105.56 24.9332 106.275 24.4458C106.995 23.9584 107.354 23.3825 107.354 22.7182V22.6062H105.037V22.7065C105.037 22.9226 104.896 23.1133 104.613 23.2784C104.334 23.4395 103.87 23.5201 103.221 23.5201C102.518 23.5201 101.989 23.3963 101.635 23.1487C101.281 22.901 101.104 22.5355 101.104 22.052V21.598C101.104 21.1145 101.285 20.7489 101.647 20.5013C102.012 20.2537 102.537 20.1298 103.221 20.1298C103.823 20.1298 104.275 20.2026 104.577 20.348C104.88 20.4895 105.033 20.6821 105.037 20.9258V21.0437H107.36L107.348 20.8728C107.293 20.2045 106.922 19.6385 106.234 19.1747C105.546 18.7069 104.55 18.473 103.245 18.473C101.885 18.473 100.784 18.76 99.9429 19.3339C99.1057 19.9038 98.687 20.7018 98.687 21.7277V21.9164Z" fill="black"/>
<path d="M107.561 20.3185H112.997V18.6499H107.561V20.3185ZM108.893 22.8362C108.893 23.642 109.139 24.2336 109.63 24.6109C110.126 24.9843 110.774 25.171 111.576 25.171C111.816 25.171 112.042 25.1533 112.254 25.118C112.47 25.0826 112.631 25.0413 112.738 24.9942V23.4081C112.635 23.4395 112.525 23.4671 112.407 23.4906C112.293 23.5142 112.179 23.526 112.065 23.526C111.818 23.526 111.617 23.4749 111.464 23.3727C111.315 23.2666 111.24 23.072 111.24 22.789V17.3351H108.899V19.3221L108.893 19.4931V22.8362Z" fill="black"/>
<path d="M113.475 21.9164C113.475 22.9266 113.903 23.7226 114.76 24.3043C115.621 24.8861 116.729 25.1769 118.085 25.1769C119.437 25.1769 120.542 24.8861 121.399 24.3043C122.256 23.7226 122.684 22.9266 122.684 21.9164V21.7277C122.684 20.7175 122.256 19.9235 121.399 19.3457C120.542 18.7639 119.436 18.473 118.079 18.473C116.727 18.473 115.621 18.7639 114.76 19.3457C113.903 19.9235 113.475 20.7175 113.475 21.7277V21.9164ZM115.892 21.598C115.892 21.0831 116.087 20.7195 116.476 20.5072C116.869 20.2949 117.403 20.1888 118.079 20.1888C118.752 20.1888 119.284 20.2949 119.677 20.5072C120.07 20.7195 120.267 21.0831 120.267 21.598V22.0461C120.267 22.5649 120.074 22.9305 119.689 23.1428C119.304 23.355 118.767 23.4612 118.079 23.4612C117.395 23.4612 116.859 23.355 116.47 23.1428C116.085 22.9305 115.892 22.5669 115.892 22.052V21.598Z" fill="black"/>
<path d="M123.769 25H126.134V21.4683C126.291 21.1813 126.538 20.9474 126.876 20.7666C127.214 20.5819 127.598 20.4895 128.026 20.4895C128.148 20.4895 128.258 20.4954 128.356 20.5072C128.459 20.5151 128.563 20.5288 128.669 20.5485V18.5615C128.618 18.5458 128.537 18.53 128.427 18.5143C128.317 18.4946 128.205 18.4848 128.091 18.4848C127.663 18.4848 127.273 18.5831 126.924 18.7796C126.578 18.9722 126.306 19.2022 126.11 19.4695L126.063 18.6499H123.769V25Z" fill="black"/>
</svg>
